<svg width="18" height="21" viewBox="0 0 18 21" fill="none" xmlns="http://www.w3.org/2000/svg">
<path d="M13.5 0.99353H3.86C1.73 0.99353 0 2.73353 0 4.85353V18.9435C0 20.7435 1.29 21.5035 2.87 20.6335L7.75 17.9235C8.27 17.6335 9.11 17.6335 9.62 17.9235L14.5 20.6335C16.08 21.5135 17.37 20.7535 17.37 18.9435V4.85353C17.36 2.73353 15.63 0.99353 13.5 0.99353ZM11.18 10.3935H9.43V12.2035C9.43 12.6135 9.09 12.9535 8.68 12.9535C8.27 12.9535 7.93 12.6135 7.93 12.2035V10.3935H6.18C5.77 10.3935 5.43 10.0535 5.43 9.64353C5.43 9.23353 5.77 8.89353 6.18 8.89353H7.93V7.20353C7.93 6.79353 8.27 6.45353 8.68 6.45353C9.09 6.45353 9.43 6.79353 9.43 7.20353V8.89353H11.18C11.59 8.89353 11.93 9.23353 11.93 9.64353C11.93 10.0535 11.59 10.3935 11.18 10.3935Z" fill="#3C0116"/>
</svg>
