<svg width="18" height="21" viewBox="0 0 18 21" fill="none" xmlns="http://www.w3.org/2000/svg">
<path d="M13.5 0.432648H3.86C1.74 0.432648 0 2.17265 0 4.29265V18.3826C0 20.1826 1.29 20.9426 2.87 20.0726L7.75 17.3626C8.27 17.0726 9.11 17.0726 9.62 17.3626L14.5 20.0726C16.08 20.9526 17.37 20.1926 17.37 18.3826V4.29265C17.36 2.17265 15.63 0.432648 13.5 0.432648ZM12.3 7.55265L8.3 11.5526C8.15 11.7026 7.96 11.7726 7.77 11.7726C7.58 11.7726 7.39 11.7026 7.24 11.5526L5.74 10.0526C5.60052 9.91151 5.5223 9.72108 5.5223 9.52265C5.5223 9.32422 5.60052 9.13379 5.74 8.99265C6.03 8.70265 6.51 8.70265 6.8 8.99265L7.77 9.96265L11.24 6.49265C11.53 6.20265 12.01 6.20265 12.3 6.49265C12.59 6.78265 12.59 7.26265 12.3 7.55265Z" fill="#3C0116"/>
</svg>
