<svg width="18" height="22" viewBox="0 0 18 22" fill="none" xmlns="http://www.w3.org/2000/svg">
<path d="M13.75 2.9975V1.4375C13.75 1.0275 13.41 0.6875 13 0.6875C12.59 0.6875 12.25 1.0275 12.25 1.4375V2.9375H5.75V1.4375C5.75 1.0275 5.41 0.6875 5 0.6875C4.59 0.6875 4.25 1.0275 4.25 1.4375V2.9975C1.55 3.2475 0.24 4.8575 0.04 7.2475C0.02 7.5375 0.26 7.7775 0.54 7.7775H17.46C17.75 7.7775 17.99 7.5275 17.96 7.2475C17.76 4.8575 16.45 3.2475 13.75 2.9975ZM17 9.2775H1C0.45 9.2775 0 9.7275 0 10.2775V16.4375C0 19.4375 1.5 21.4375 5 21.4375H13C16.5 21.4375 18 19.4375 18 16.4375V10.2775C18 9.7275 17.55 9.2775 17 9.2775ZM6.21 17.6475C6.16 17.6875 6.11 17.7375 6.06 17.7675C6 17.8075 5.94 17.8375 5.88 17.8575C5.82 17.8875 5.76 17.9075 5.7 17.9175C5.63 17.9275 5.57 17.9375 5.5 17.9375C5.37 17.9375 5.24 17.9075 5.12 17.8575C4.99 17.8075 4.89 17.7375 4.79 17.6475C4.61 17.4575 4.5 17.1975 4.5 16.9375C4.5 16.6775 4.61 16.4175 4.79 16.2275C4.89 16.1375 4.99 16.0675 5.12 16.0175C5.3 15.9375 5.5 15.9175 5.7 15.9575C5.76 15.9675 5.82 15.9875 5.88 16.0175C5.94 16.0375 6 16.0675 6.06 16.1075L6.21 16.2275C6.39 16.4175 6.5 16.6775 6.5 16.9375C6.5 17.1975 6.39 17.4575 6.21 17.6475ZM6.21 14.1475C6.02 14.3275 5.76 14.4375 5.5 14.4375C5.24 14.4375 4.98 14.3275 4.79 14.1475C4.61 13.9575 4.5 13.6975 4.5 13.4375C4.5 13.1775 4.61 12.9175 4.79 12.7275C5.07 12.4475 5.51 12.3575 5.88 12.5175C6.01 12.5675 6.12 12.6375 6.21 12.7275C6.39 12.9175 6.5 13.1775 6.5 13.4375C6.5 13.6975 6.39 13.9575 6.21 14.1475ZM9.71 17.6475C9.52 17.8275 9.26 17.9375 9 17.9375C8.74 17.9375 8.48 17.8275 8.29 17.6475C8.11 17.4575 8 17.1975 8 16.9375C8 16.6775 8.11 16.4175 8.29 16.2275C8.66 15.8575 9.34 15.8575 9.71 16.2275C9.89 16.4175 10 16.6775 10 16.9375C10 17.1975 9.89 17.4575 9.71 17.6475ZM9.71 14.1475L9.56 14.2675C9.5 14.3075 9.44 14.3375 9.38 14.3575C9.32 14.3875 9.26 14.4075 9.2 14.4175C9.13 14.4275 9.07 14.4375 9 14.4375C8.74 14.4375 8.48 14.3275 8.29 14.1475C8.11 13.9575 8 13.6975 8 13.4375C8 13.1775 8.11 12.9175 8.29 12.7275C8.38 12.6375 8.49 12.5675 8.62 12.5175C8.99 12.3575 9.43 12.4475 9.71 12.7275C9.89 12.9175 10 13.1775 10 13.4375C10 13.6975 9.89 13.9575 9.71 14.1475ZM13.21 17.6475C13.02 17.8275 12.76 17.9375 12.5 17.9375C12.24 17.9375 11.98 17.8275 11.79 17.6475C11.61 17.4575 11.5 17.1975 11.5 16.9375C11.5 16.6775 11.61 16.4175 11.79 16.2275C12.16 15.8575 12.84 15.8575 13.21 16.2275C13.39 16.4175 13.5 16.6775 13.5 16.9375C13.5 17.1975 13.39 17.4575 13.21 17.6475ZM13.21 14.1475L13.06 14.2675C13 14.3075 12.94 14.3375 12.88 14.3575C12.82 14.3875 12.76 14.4075 12.7 14.4175C12.63 14.4275 12.56 14.4375 12.5 14.4375C12.24 14.4375 11.98 14.3275 11.79 14.1475C11.61 13.9575 11.5 13.6975 11.5 13.4375C11.5 13.1775 11.61 12.9175 11.79 12.7275C11.89 12.6375 11.99 12.5675 12.12 12.5175C12.3 12.4375 12.5 12.4175 12.7 12.4575C12.76 12.4675 12.82 12.4875 12.88 12.5175C12.94 12.5375 13 12.5675 13.06 12.6075L13.21 12.7275C13.39 12.9175 13.5 13.1775 13.5 13.4375C13.5 13.6975 13.39 13.9575 13.21 14.1475Z" fill="#3C0116"/>
</svg>
