<svg width="22" height="23" viewBox="0 0 22 23" fill="none" xmlns="http://www.w3.org/2000/svg">
<path d="M9.53864 0.527253C4.27876 0.527253 0 4.80602 0 10.0659C0 15.3258 4.27876 19.6045 9.53864 19.6045C11.1466 19.6045 12.7273 19.223 14.0627 18.4872C14.1697 18.6159 14.2883 18.7345 14.417 18.8414L17.1423 21.5668C17.394 21.8499 17.7008 22.0787 18.0441 22.239C18.3873 22.3992 18.7597 22.4876 19.1384 22.4988C19.517 22.5099 19.894 22.4436 20.2461 22.3038C20.5981 22.164 20.9179 21.9537 21.1858 21.6858C21.4537 21.4179 21.664 21.0981 21.8038 20.7461C21.9436 20.394 22.0099 20.017 21.9988 19.6384C21.9876 19.2597 21.8992 18.8873 21.739 18.5441C21.5787 18.2008 21.3499 17.894 21.0668 17.6423L18.3414 14.917C18.2087 14.7842 18.0626 14.6654 17.9054 14.5627C18.6412 13.2273 19.1045 11.6738 19.1045 10.0386C19.1045 4.77876 14.8258 0.5 9.5659 0.5L9.53864 0.527253ZM9.53864 3.25258C13.3268 3.25258 16.352 6.27769 16.352 10.0659C16.352 11.8646 15.6979 13.5271 14.5532 14.7535C14.526 14.7807 14.4987 14.808 14.4715 14.8352C14.3428 14.9422 14.2242 15.0608 14.1172 15.1895C12.918 16.2796 11.2829 16.9065 9.51139 16.9065C5.72319 16.9065 2.69807 13.8814 2.69807 10.0932C2.69807 6.30495 5.72319 3.27983 9.51139 3.27983L9.53864 3.25258Z" fill="#A6035B"/>
</svg>
